<svg width="32" height="32" viewBox="0 0 32 32" fill="none" xmlns="http://www.w3.org/2000/svg">
<path d="M9.92765 2.64941C15.069 1.5797 20.8278 1.71619 25.6513 3.92578C27.0086 4.54755 28.4541 5.49975 29.3222 6.72949C29.5047 6.98987 29.6511 7.2739 29.7558 7.57324C30.2456 8.94623 29.9651 10.3657 29.0429 11.4619C28.9518 11.5706 28.8297 11.7389 28.7568 11.8584C29.6717 13.0321 30.1468 13.7605 29.9599 15.3428C29.8049 16.6517 28.6767 17.8259 27.6464 18.5938C24.4746 20.9573 19.8803 21.567 16.0116 21.7041C16.0547 19.9075 16.0217 18.0275 16.0263 16.2119C14.2066 16.1629 12.387 16.3196 10.6034 16.6787C8.6498 17.0754 6.48897 17.9091 4.77726 18.9111C4.31614 19.1811 3.69358 19.7893 3.30949 20.1816C3.82046 20.7411 4.34056 21.0914 4.96281 21.498C7.93233 23.4386 11.8574 23.989 15.3466 24.1533C16.1778 24.1924 17.0254 24.1438 17.8642 24.082C20.7351 23.8705 23.8409 23.2938 26.3818 21.8975C26.8491 21.6406 27.2181 21.4109 27.6425 21.0869C27.9732 20.8344 28.3912 20.4375 28.7245 20.2236C29.7208 21.1565 30.0705 22.1097 29.9882 23.4707C29.897 24.9796 28.7581 26.0265 27.664 26.9551C26.7839 27.6393 25.2696 28.3165 24.2011 28.6943C23.0402 29.1924 21.3788 29.5361 20.122 29.7002C19.3854 29.7964 18.5985 29.9332 17.8622 29.9785C17.339 30.0107 16.7334 29.9977 16.204 29.998C15.5719 29.9985 14.9151 30.0064 14.287 29.9834C13.6005 29.9583 12.9025 29.8329 12.2284 29.7461C10.6669 29.545 9.17872 29.2569 7.71574 28.667C6.0216 27.9838 4.59526 27.405 3.33488 26.0371C2.91432 25.5807 2.57813 25.2495 2.31828 24.6572C1.89876 23.7009 1.92158 22.5355 2.30265 21.5723C2.49876 21.0766 2.906 20.5986 3.22746 20.168C2.37269 19.0973 1.8578 18.166 2.03507 16.7695C2.20875 15.4017 3.04823 14.3976 4.11222 13.582C6.69171 11.6051 9.91987 10.8336 13.1142 10.5215C14.191 10.4163 14.9223 10.2934 16.0341 10.2959C16.042 12.1145 16.0054 14.0497 16.038 15.8701C17.242 15.87 18.403 15.74 19.5966 15.6035C22.5891 15.2612 26.4018 14.1128 28.5693 11.9824C28.6114 11.9409 28.6531 11.8989 28.6943 11.8564C26.0741 9.01817 20.6316 7.98915 16.8857 7.84863C14.0293 7.74155 9.83488 8.27002 7.17667 9.35254C5.80015 9.90969 4.53142 10.6964 3.42667 11.6787L3.25089 11.8379C2.36316 10.9272 1.98842 10.0937 2.00089 8.83106C2.02936 5.97178 5.41302 4.11471 7.79972 3.32422C8.45849 3.09513 9.25247 2.78997 9.92765 2.64941Z" fill="#0D44EC"/>
</svg>
